<?xml version="1.0" standalone="no"?>
<!DOCTYPE svg PUBLIC "-//W3C//DTD SVG 20010904//EN"
 "http://www.w3.org/TR/2001/REC-SVG-20010904/DTD/svg10.dtd">
<svg version="1.0" xmlns="http://www.w3.org/2000/svg"
 width="640.000000pt" height="640.000000pt" viewBox="0 0 640.000000 640.000000"
 preserveAspectRatio="xMidYMid meet">

<g transform="translate(0.000000,640.000000) scale(0.100000,-0.100000)"
fill="#000000" stroke="none">
<path d="M2980 5579 c-572 -55 -1090 -303 -1493 -716 -251 -257 -427 -540
-547 -878 -144 -406 -173 -884 -80 -1307 82 -371 244 -706 484 -1005 74 -92
321 -328 419 -402 788 -587 1858 -638 2689 -129 221 136 466 351 624 548 203
254 366 580 449 896 56 216 69 331 70 594 0 307 -22 468 -99 719 -333 1079
-1394 1788 -2516 1680z m536 -215 c719 -105 1338 -556 1659 -1209 408 -829
250 -1825 -394 -2489 -254 -261 -532 -438 -881 -559 -594 -206 -1300 -126
-1840 208 -492 305 -837 770 -984 1328 -49 187 -61 293 -61 557 1 213 4 261
24 370 154 827 737 1483 1534 1724 294 89 638 115 943 70z"/>
<path d="M1739 4407 c-157 -45 -261 -182 -261 -342 1 -146 78 -267 209 -328
39 -18 66 -22 143 -22 82 0 103 4 150 26 273 130 270 520 -5 645 -66 30 -170
40 -236 21z m161 -207 c8 -5 28 -22 44 -39 23 -24 30 -42 34 -86 4 -48 1 -61
-22 -96 -62 -92 -191 -91 -253 2 -22 33 -25 47 -21 94 4 46 10 61 39 91 18 19
47 39 64 43 31 9 88 4 115 -9z"/>
<path d="M2521 4339 c-132 -26 -221 -136 -221 -274 0 -112 56 -205 155 -258
l40 -22 1094 -3 c1252 -3 1166 -8 1256 81 146 147 95 392 -98 466 -38 14 -155
16 -1112 18 -588 0 -1090 -3 -1114 -8z m2184 -224 c39 -38 27 -102 -22 -124
-35 -16 -2106 -16 -2136 1 -51 27 -63 85 -25 125 l21 23 1069 0 1069 0 24 -25z"/>
<path d="M1767 3540 c-145 -25 -267 -150 -286 -295 -22 -157 56 -308 194 -375
43 -22 64 -25 155 -25 91 0 111 3 155 25 101 49 177 153 195 264 38 240 -172
446 -413 406z m141 -220 c130 -79 74 -280 -78 -280 -85 0 -150 65 -150 150 0
54 27 102 72 130 20 12 51 20 78 20 27 0 58 -8 78 -20z"/>
<path d="M2485 3457 c-121 -48 -185 -138 -185 -261 0 -122 56 -212 163 -262
l52 -24 1100 0 1100 0 50 24 c108 50 171 156 163 273 -8 112 -63 193 -163 239
l-50 24 -1100 -1 c-818 0 -1108 -4 -1130 -12z m2220 -212 c16 -15 25 -36 25
-55 0 -19 -9 -40 -25 -55 l-24 -25 -1066 0 -1066 0 -24 25 c-31 30 -32 73 -4
109 l20 26 1070 0 1070 0 24 -25z"/>
<path d="M1725 2656 c-133 -43 -225 -151 -244 -286 -26 -195 92 -361 283 -400
106 -22 221 11 305 86 184 166 138 478 -88 582 -66 31 -190 40 -256 18z m175
-204 c19 -9 45 -33 58 -52 20 -29 23 -44 20 -93 -4 -50 -9 -63 -40 -93 -63
-64 -156 -63 -219 2 -27 27 -33 43 -37 89 -4 48 -1 61 22 96 44 66 125 87 196
51z"/>
<path d="M2500 2591 c-124 -38 -200 -142 -200 -274 0 -120 58 -209 169 -261
46 -21 49 -21 1136 -21 843 0 1099 3 1131 12 61 19 125 73 159 134 27 48 30
63 30 139 0 102 -19 146 -90 208 -87 77 -10 72 -1224 71 -597 0 -1097 -4
-1111 -8z m2198 -209 c13 -10 25 -33 28 -54 5 -30 2 -41 -19 -62 l-26 -26
-1067 0 -1068 0 -23 22 c-32 30 -31 81 2 113 l24 25 1063 0 c997 0 1064 -2
1086 -18z"/>
</g>
</svg>
