<?xml version="1.0" standalone="no"?>
<!DOCTYPE svg PUBLIC "-//W3C//DTD SVG 20010904//EN"
 "http://www.w3.org/TR/2001/REC-SVG-20010904/DTD/svg10.dtd">
<svg version="1.0" xmlns="http://www.w3.org/2000/svg"
 width="216.000000pt" height="234.000000pt" viewBox="0 0 216.000000 234.000000"
 preserveAspectRatio="xMidYMid meet">

<g transform="translate(0.000000,234.000000) scale(0.100000,-0.100000)"
fill="#000000" stroke="none">
<path d="M1202 2277 c-23 -29 -56 -80 -73 -114 -28 -55 -31 -69 -27 -130 4
-58 13 -85 62 -185 55 -109 59 -121 58 -186 0 -48 -7 -84 -21 -117 -28 -64
-27 -65 18 -9 102 130 108 190 32 344 -79 161 -84 240 -27 381 14 35 24 64 23
66 -2 1 -22 -21 -45 -50z"/>
<path d="M910 2014 c-73 -121 -72 -193 4 -311 24 -38 51 -82 60 -100 18 -36
21 -128 6 -169 -21 -55 -1 -33 34 37 55 109 50 132 -55 298 -28 44 -34 65 -37
121 -3 43 2 87 11 121 9 29 15 54 13 56 -1 1 -17 -22 -36 -53z"/>
<path d="M794 1319 c-219 -21 -376 -63 -432 -116 l-35 -33 6 -99 c16 -259 137
-507 318 -648 33 -26 84 -67 113 -90 70 -55 111 -71 222 -85 112 -13 264 1
328 32 46 22 197 138 266 204 36 35 62 49 130 70 247 78 420 214 420 331 0 46
-37 110 -82 141 -36 26 -52 29 -130 32 l-88 4 0 55 c0 50 -3 59 -34 88 -57 53
-213 94 -446 115 -130 11 -435 11 -556 -1z m567 -39 c272 -27 429 -78 429
-140 0 -46 -118 -90 -319 -120 -193 -28 -588 -28 -780 0 -226 33 -331 77 -318
133 13 50 180 103 398 126 120 12 469 13 590 1z m655 -324 c38 -38 44 -77 20
-125 -19 -35 -85 -95 -133 -119 -36 -19 -165 -62 -184 -62 -5 0 3 26 17 58 14
31 37 88 50 127 50 143 154 197 230 121z"/>
<path d="M278 755 c-86 -31 -200 -99 -233 -138 -65 -75 -57 -157 21 -226 113
-100 487 -287 689 -346 245 -71 524 -56 770 41 138 55 401 187 489 246 109 73
141 114 140 183 0 42 -6 60 -28 89 -37 49 -73 73 -89 57 -8 -8 -1 -22 31 -54
145 -148 -35 -282 -488 -365 -138 -25 -162 -26 -490 -26 -289 -1 -364 2 -460
17 -311 50 -524 135 -575 230 -27 50 -14 96 39 145 49 45 88 67 193 106 52 20
70 31 66 42 -6 17 -26 17 -75 -1z"/>
</g>
</svg>
